<?xml version="1.0" encoding="utf-8"?>
<!-- Generator: Adobe Illustrator 26.3.1, SVG Export Plug-In . SVG Version: 6.00 Build 0)  -->
<svg version="1.1" id="Layer_1" xmlns="http://www.w3.org/2000/svg" xmlns:xlink="http://www.w3.org/1999/xlink" x="0px" y="0px"
	 viewBox="0 0 360 200" style="enable-background:new 0 0 360 200;" xml:space="preserve">
<style type="text/css">
	.st1{fill:#004178;}
	.st2{fill:#00A5E6;}
</style>
<g>
	<g>
		<path class="st1" d="M179.77,65.76l-2.35-7.23c-0.02-0.06-0.08-0.11-0.14-0.11h-26.15c-0.08,0-0.15,0.07-0.15,0.15v7.32
			c0,0.08,0.07,0.15,0.15,0.15h9.05v27.81c0,0.08,0.07,0.15,0.15,0.15h8.9c0.08,0,0.15-0.07,0.15-0.15V66.04h10.22
			c0,0,0.21,0,0.21-0.15C179.81,65.85,179.77,65.76,179.77,65.76"/>
		<path class="st1" d="M214.57,58.48c-0.03-0.04-0.07-0.06-0.12-0.06h-9.4c-0.07,0-0.12,0.04-0.14,0.11l-7.11,24.59l-7.16-24.59
			c-0.02-0.06-0.08-0.11-0.14-0.11h-9.4c-0.04,0-0.1,0.03-0.12,0.06s-0.04,0.09-0.02,0.13l12.1,35.27c0.02,0.06,0.08,0.11,0.14,0.11
			h8.99c0.06,0,0.12-0.04,0.14-0.1l12.25-35.27C214.61,58.57,214.6,58.53,214.57,58.48"/>
		<path class="st1" d="M243.74,87.97c0.94-1.74,1.41-3.61,1.41-5.57c0-1.33-0.24-2.63-0.71-3.86c-1.21-2.9-3.8-4.75-7.7-5.53
			c-2.26-0.52-4.13-0.88-5.91-1.16c-0.69-0.11-1.31-0.19-1.88-0.26c-2.14-0.27-3.57-0.46-4.49-1.46c-0.16-0.16-0.71-0.78-0.71-1.74
			c0-1.39,1.39-3.6,5.1-3.6c1.26,0,2.39,0.28,3.01,0.43c0.11,0.03,0.19,0.05,0.23,0.05c2.53,0.81,3.87,1.84,5.9,3.81
			c0.05,0.05,0.13,0.05,0.19,0.02l6.5-4.64c0.04-0.03,0.06-0.07,0.06-0.11s-0.02-0.09-0.05-0.12c-1.96-1.71-2.7-2.35-3.91-3.16
			c-3.46-2.34-7.41-3.52-11.74-3.52c-6.21,0-9.62,2.34-11.09,3.73c-1.7,1.61-2.68,3.42-3.1,5.74c-0.15,1.02-0.2,2.18-0.2,2.46
			c0,1.33,0.25,2.45,0.46,3.15c0.45,1.29,1.15,2.21,1.52,2.64c1.9,2.28,4.47,3.18,6.73,3.75c1.61,0.39,3.29,0.7,5.01,0.9
			c0.4,0.05,0.82,0.11,1.25,0.16c3.03,0.37,6.47,0.79,6.47,3.49c0,2.67-3.62,3.6-3.65,3.61c-1.12,0.34-2.3,0.34-2.7,0.34
			c-3.05,0-6.42-1.15-8.56-2.92c-0.56-0.44-1.12-1.04-1.39-1.33c-0.06-0.07-0.11-0.12-0.14-0.15c-0.03-0.03-0.07-0.04-0.11-0.04
			c-0.03,0-0.05,0.01-0.08,0.03l-6.7,4.2c-0.04,0.03-0.06,0.06-0.07,0.11c-0.01,0.04,0.01,0.09,0.04,0.11
			c1.41,1.67,1.87,2.17,2.82,2.97c3.56,2.88,7.94,4.28,13.39,4.28c1.1,0,2.3-0.08,3.57-0.25C237.92,93.91,241.7,91.7,243.74,87.97"
			/>
		<path class="st1" d="M129.86,84.6c0,9.73,2.84,19.26,8.08,27.38c0.32,0.47,0.49,1.15,0.04,1.4c-0.32,0.18-0.76,0.19-2.09-1.19
			c-8.88-9.42-13.86-21.83-13.86-34.96c0-28.15,22.91-51.05,51.09-51.05c11.37,0,22.74,2.97,30.95,10.46
			c1.06,0.96,1.16,1.93,0.73,2.35c-0.42,0.41-1.22,0.56-3.27-0.39c-6.57-3-13.75-4.59-21.04-4.59
			C152.57,34.02,129.86,56.71,129.86,84.6"/>
		<path class="st2" d="M121.39,57.65c0.85-1.82,1.44-2.12,1.86-1.92c0.49,0.24,0.26,1.17,0.03,1.69
			c-2.52,6.59-3.89,13.74-3.89,21.21c0,32.98,26.76,59.73,59.76,59.73c8.61,0,16.78-1.83,24.18-5.1c0.31-0.12,1.91-1.05,2.27-0.5
			c0.2,0.31-0.09,0.72-0.39,0.92c-9.16,5.95-20.09,9.43-31.84,9.43c-32.33,0-58.55-26.2-58.55-58.51
			C114.83,74.88,117.2,65.71,121.39,57.65"/>
		<path class="st1" d="M165.48,107.75c-1.13,0.95-2.64,0.96-3.06,0.96c-0.56,0-2.35-0.03-3.65-1.39c-0.16-0.18-0.33-0.4-0.45-0.61
			l1.47-1.02c0.41,0.61,1.17,1.4,2.9,1.41c0.08,0,0.41,0,0.69-0.06c0.2-0.04,1.11-0.29,1.11-1.17c0-0.1-0.01-0.34-0.17-0.56
			c-0.32-0.42-1.17-0.55-1.63-0.65l-1.11-0.26c-0.48-0.11-1-0.21-1.42-0.44c-0.43-0.23-1.34-0.82-1.33-2.17
			c0-0.21,0.03-0.82,0.36-1.38c0.42-0.71,1.45-1.54,3.35-1.53c0.84,0,2.48,0.13,3.78,1.9l-1.45,1.07c-0.29-0.47-0.95-1.39-2.43-1.39
			c-0.1,0-1.27-0.02-1.66,0.71c-0.08,0.14-0.11,0.28-0.11,0.42c0,0.16,0.04,0.29,0.11,0.42c0.22,0.39,0.74,0.5,1.61,0.69l0.97,0.21
			c0.89,0.2,1.87,0.47,2.49,1.2c0.26,0.29,0.54,0.71,0.54,1.58C166.4,106.55,166.13,107.2,165.48,107.75"/>
		<path class="st1" d="M171.87,108.5l-0.01-0.68c-0.34,0.3-0.98,0.83-2.14,0.83c-1.1,0-1.64-0.49-1.91-0.88
			c-0.42-0.63-0.38-1.38-0.38-2.09l0.01-3.81h1.61l-0.01,3.57c0,0.55-0.03,1.19,0.53,1.51c0.21,0.13,0.51,0.19,0.77,0.2
			c0.77,0,1.16-0.5,1.29-0.74c0.26-0.5,0.26-1.22,0.26-1.74l0.01-2.81h1.59l-0.01,6.63L171.87,108.5z"/>
		<path class="st1" d="M179.59,104.32c-0.23-0.65-0.81-1.11-1.51-1.11c-0.41,0-0.69,0.16-0.82,0.24c-0.34,0.24-0.74,0.72-0.78,1.7
			c0,0.26,0.03,0.53,0.09,0.79c0.19,0.74,0.74,1.26,1.54,1.26c0.28,0,0.58-0.08,0.82-0.24c0.39-0.25,0.77-0.78,0.78-1.79
			C179.72,105.05,179.72,104.68,179.59,104.32 M180.68,107.49c-0.79,1.1-1.86,1.22-2.37,1.22c-0.4,0-1.09-0.08-1.8-0.75v2.7h-1.59
			l0.02-8.78h1.59v0.6c0.26-0.27,0.81-0.79,1.82-0.79c0.42,0,1.37,0.08,2.12,0.97c0.34,0.41,0.88,1.27,0.88,2.59
			C181.34,105.61,181.32,106.61,180.68,107.49"/>
		<path class="st1" d="M187.08,104.34c-0.22-0.65-0.8-1.11-1.51-1.11c-0.41,0-0.69,0.16-0.82,0.24c-0.34,0.24-0.74,0.73-0.78,1.71
			c0,0.26,0.03,0.53,0.1,0.79c0.19,0.74,0.74,1.26,1.54,1.26c0.28,0,0.58-0.08,0.82-0.24c0.39-0.25,0.77-0.78,0.78-1.79
			C187.19,105.06,187.19,104.69,187.08,104.34 M188.16,107.51c-0.79,1.09-1.86,1.22-2.37,1.22c-0.4,0-1.09-0.08-1.8-0.74l-0.01,2.7
			h-1.59l0.02-8.78H184v0.6c0.26-0.27,0.81-0.79,1.82-0.79c0.42,0,1.37,0.08,2.12,0.97c0.34,0.41,0.88,1.27,0.88,2.59
			C188.83,105.62,188.79,106.62,188.16,107.51"/>
		<path class="st1" d="M196.65,107.69c-0.24,0.82-0.59,2.22-1.21,2.73c-0.41,0.34-0.84,0.4-1.35,0.4c-0.5,0-0.69-0.04-0.94-0.1
			v-1.38c0.64,0.08,1,0,1.24-0.19c0.19-0.19,0.26-0.38,0.28-0.48l-2.39-6.76h1.71l1.47,4.94l1.25-4.94h1.63L196.65,107.69z"/>
		<path class="st1" d="M209.96,107.22c-0.44,0.56-1.47,1.59-3.35,1.58c-0.32,0-1.08-0.03-1.88-0.41c-1.06-0.5-2.49-1.78-2.49-4.55
			c0-0.5,0-1.84,0.86-3.07c0.45-0.65,1.53-1.81,3.58-1.81c1.79,0,2.73,0.89,3.15,1.49c0.31,0.45,0.49,0.92,0.65,1.4l-1.74,0.45
			c-0.01-0.12-0.06-0.42-0.24-0.74c-0.35-0.66-1.06-1.01-1.8-1c-0.53,0-0.9,0.16-1.09,0.25c-0.69,0.34-1.48,1.24-1.49,2.99
			c0,0.26,0.01,1.38,0.56,2.22c0.19,0.28,0.41,0.52,0.68,0.69c0.56,0.39,1.11,0.42,1.37,0.42c0.73,0,1.27-0.29,1.73-0.85
			c0.19-0.23,0.34-0.5,0.37-0.56c0.05-0.12,0.1-0.23,0.18-0.47l1.66,0.69C210.46,106.43,210.27,106.8,209.96,107.22"/>
		<path class="st1" d="M215.95,108.57l0.01-3.65c0-0.53,0.03-1.01-0.42-1.39c-0.13-0.12-0.39-0.28-0.82-0.28
			c-0.55,0-0.98,0.22-1.32,0.64c-0.13,0.16-0.24,0.35-0.29,0.56c-0.05,0.19-0.05,0.36-0.05,0.57l-0.01,3.55h-1.59l0.02-9.4h1.59
			l-0.01,3.45c0.13-0.15,0.29-0.29,0.64-0.49c0.26-0.14,0.73-0.38,1.46-0.38c0.73,0,1.53,0.26,1.96,0.87
			c0.41,0.58,0.41,1.19,0.41,1.85l-0.01,4.1L215.95,108.57z"/>
		<path class="st1" d="M222.83,105.28c-0.26,0.13-0.61,0.26-1.26,0.37c-0.35,0.06-0.74,0.08-1.08,0.27
			c-0.23,0.14-0.39,0.37-0.39,0.66c0,0.4,0.29,0.79,1.09,0.79c0.87,0,1.39-0.45,1.54-0.75c0.11-0.21,0.1-0.4,0.1-0.61L222.83,105.28
			L222.83,105.28z M222.83,108.58l-0.04-0.52c-0.25,0.21-0.48,0.32-0.61,0.37c-0.44,0.19-0.85,0.3-1.34,0.3
			c-0.32,0-1.51-0.04-2.12-1.02c-0.11-0.18-0.3-0.53-0.29-1.06c0-0.37,0.1-1.11,0.9-1.66c0.55-0.37,1.06-0.45,1.68-0.56
			c0.98-0.19,1.34-0.27,1.83-0.45c0-0.18-0.01-0.39-0.09-0.55c-0.13-0.26-0.47-0.45-1.05-0.45c-0.61,0-1,0.19-1.17,0.41
			c-0.19,0.22-0.18,0.49-0.18,0.58l-1.62-0.1c0.02-0.29,0.07-1,0.72-1.52c0.41-0.34,1.03-0.61,2.19-0.61c1.09,0,1.72,0.23,2.14,0.52
			c0.28,0.2,0.42,0.42,0.48,0.53c0.17,0.34,0.17,0.81,0.17,1.18l-0.01,3.52c0,0.5,0.03,0.65,0.29,1.08L222.83,108.58z"/>
		
			<rect x="186.01" y="103.05" transform="matrix(1.809339e-03 -1 1 1.809339e-03 86.4987 294.3749)" class="st1" width="9.38" height="1.62"/>
		<path class="st1" d="M225.89,100.76v-1.61h1.58v1.61H225.89z M225.88,108.55l0.01-6.75h1.58l-0.01,6.75H225.88z"/>
		<path class="st1" d="M233.14,108.6l0.01-3.38c0-0.52,0-0.77-0.06-1.02c-0.19-0.77-0.79-0.87-1.1-0.87c-0.18,0-0.5,0.03-0.84,0.3
			c-0.48,0.4-0.63,0.95-0.63,2.09v2.88h-1.61l0.01-6.63h1.61v0.78c0.03-0.04,0.16-0.21,0.29-0.34c0.63-0.58,1.53-0.64,1.75-0.64
			c0.98,0,1.55,0.5,1.77,0.81c0.42,0.61,0.38,1.45,0.38,2.12l-0.01,3.9L233.14,108.6z"/>
		<path class="st1" d="M165.46,121.04c-1.13,0.95-2.64,0.96-3.06,0.96c-0.56,0-2.35-0.04-3.65-1.39c-0.16-0.18-0.33-0.4-0.45-0.61
			l1.47-1.02c0.41,0.61,1.18,1.4,2.9,1.41c0.08,0,0.41,0,0.69-0.06c0.2-0.04,1.11-0.29,1.12-1.17c0-0.1-0.01-0.34-0.17-0.56
			c-0.32-0.42-1.17-0.55-1.63-0.65l-1.11-0.26c-0.48-0.11-1-0.21-1.42-0.44c-0.43-0.23-1.34-0.82-1.33-2.18
			c0-0.21,0.03-0.82,0.36-1.38c0.42-0.71,1.45-1.54,3.35-1.54c0.84,0,2.48,0.13,3.78,1.9l-1.45,1.07c-0.29-0.47-0.95-1.39-2.43-1.39
			c-0.1,0-1.27-0.02-1.66,0.71c-0.08,0.14-0.11,0.27-0.11,0.42c0,0.16,0.04,0.29,0.11,0.42c0.23,0.39,0.74,0.5,1.61,0.69l0.97,0.21
			c0.89,0.2,1.87,0.47,2.49,1.2c0.26,0.29,0.54,0.71,0.54,1.58C166.38,119.83,166.11,120.48,165.46,121.04"/>
		<path class="st1" d="M170.42,116.38c-0.15,0-0.55,0.03-0.9,0.25c-0.34,0.23-0.81,0.77-0.81,1.77c0,0.32,0.03,0.59,0.13,0.9
			c0.11,0.32,0.56,1.22,1.65,1.23c1.21,0,1.75-1.06,1.71-2.1C172.19,117.37,171.6,116.38,170.42,116.38 M173.6,119.92
			c-0.26,0.68-1.13,2.06-3.11,2.05c-0.28,0-0.85-0.02-1.5-0.31c-0.69-0.31-1.95-1.24-1.94-3.24c0-0.71,0.2-1.24,0.29-1.48
			c0.28-0.66,1.13-2,3.11-1.99c0.26,0,0.84,0.03,1.46,0.31c0.71,0.31,1.95,1.19,1.96,3.19C173.87,118.67,173.86,119.3,173.6,119.92"
			/>
		
			<rect x="171.05" y="116.3" transform="matrix(1.813971e-03 -1 1 1.813971e-03 58.3027 292.6142)" class="st1" width="9.36" height="1.62"/>
		<path class="st1" d="M182.37,121.79l-0.01-0.67c-0.34,0.31-0.98,0.83-2.14,0.83c-1.1,0-1.64-0.48-1.91-0.87
			c-0.42-0.63-0.38-1.38-0.38-2.09l0.01-3.81h1.61l-0.01,3.58c0,0.55-0.03,1.19,0.53,1.51c0.21,0.13,0.52,0.2,0.77,0.2
			c0.77,0,1.16-0.5,1.29-0.74c0.26-0.5,0.26-1.22,0.26-1.74l0.01-2.81l1.59,0.01l-0.01,6.63L182.37,121.79z"/>
		<path class="st1" d="M187.48,121.85c-0.87,0-1.32-0.21-1.59-0.53c-0.13-0.16-0.19-0.32-0.19-0.39c-0.07-0.21-0.08-0.67-0.08-1.26
			l0.01-3.61h-0.97v-1.13h0.97l0.01-2.52h1.59v2.52h1.42v1.13h-1.42l-0.01,3.24c0,0.26-0.04,0.77,0.16,0.98
			c0.19,0.21,0.56,0.2,0.61,0.2c0.22,0,0.45-0.03,0.65-0.08v1.34C188.41,121.78,188.02,121.86,187.48,121.85"/>
		<path class="st1" d="M189.36,114.03v-1.61h1.58v1.61H189.36z M189.35,121.8l0.01-6.73h1.58l-0.01,6.73H189.35z"/>
		<path class="st1" d="M195.39,116.42c-0.14,0-0.55,0.03-0.9,0.25c-0.34,0.22-0.81,0.77-0.81,1.77c0,0.32,0.03,0.59,0.13,0.9
			c0.11,0.32,0.56,1.22,1.65,1.23c1.21,0,1.75-1.06,1.71-2.1C197.16,117.42,196.56,116.42,195.39,116.42 M198.57,119.97
			c-0.26,0.67-1.13,2.05-3.11,2.05c-0.28,0-0.85-0.02-1.5-0.31c-0.69-0.31-1.94-1.24-1.94-3.24c0-0.71,0.2-1.24,0.29-1.48
			c0.28-0.66,1.13-2,3.11-1.99c0.25,0,0.84,0.03,1.46,0.31c0.71,0.31,1.95,1.19,1.96,3.19
			C198.84,118.72,198.83,119.34,198.57,119.97"/>
		<path class="st1" d="M204.09,121.83l0.01-3.38c0-0.52,0-0.77-0.06-1.02c-0.19-0.77-0.78-0.87-1.1-0.87c-0.18,0-0.5,0.03-0.84,0.3
			c-0.48,0.4-0.63,0.95-0.63,2.09l-0.01,2.88h-1.61l0.01-6.63h1.61v0.79c0.03-0.04,0.16-0.21,0.29-0.34
			c0.63-0.58,1.53-0.64,1.76-0.64c0.98,0,1.55,0.5,1.77,0.81c0.42,0.61,0.38,1.45,0.38,2.12l-0.01,3.89L204.09,121.83z"/>
		<path class="st1" d="M212.44,120.68c-0.32,0.61-1.14,1.36-2.76,1.36c-1.24,0-2.14-0.42-2.54-0.68c-0.23-0.14-0.44-0.32-0.64-0.52
			l1.19-0.96c0.05,0.07,0.13,0.19,0.3,0.34c0.57,0.49,1.42,0.52,1.61,0.52c0.4,0,0.86-0.09,1.13-0.4c0.11-0.11,0.18-0.25,0.18-0.39
			c0-0.05-0.01-0.16-0.11-0.27c-0.18-0.24-0.39-0.26-0.87-0.36c-0.43-0.1-0.87-0.15-1.3-0.26c-0.29-0.08-1.83-0.45-1.83-1.89
			c0-0.5,0.21-0.87,0.31-1.02c0.33-0.52,1.11-1.14,2.55-1.14c0.52,0,1.85,0.08,2.85,1.24l-1.13,1.04c-0.13-0.28-0.3-0.44-0.41-0.53
			c-0.41-0.36-0.85-0.48-1.39-0.48c-0.07,0-0.52,0-0.81,0.19c-0.24,0.16-0.29,0.37-0.29,0.49c0.01,0.23,0.17,0.38,0.21,0.41
			c0.17,0.13,0.61,0.24,1.14,0.34c0.35,0.06,0.71,0.12,1.07,0.2c0.36,0.08,0.76,0.2,1.05,0.41c0.24,0.18,0.72,0.64,0.72,1.45
			C212.67,120.09,212.59,120.4,212.44,120.68"/>
	</g>
</g>
</svg>
