<?xml version="1.0" encoding="UTF-8" standalone="no"?>
<!-- Created with Inkscape (http://www.inkscape.org/) -->

<svg
   xmlns:dc="http://purl.org/dc/elements/1.1/"
   xmlns:cc="http://creativecommons.org/ns#"
   xmlns:rdf="http://www.w3.org/1999/02/22-rdf-syntax-ns#"
   xmlns:svg="http://www.w3.org/2000/svg"
   xmlns="http://www.w3.org/2000/svg"
   xmlns:sodipodi="http://sodipodi.sourceforge.net/DTD/sodipodi-0.dtd"
   xmlns:inkscape="http://www.inkscape.org/namespaces/inkscape"
   width="176.52336"
   height="50.259911"
   viewBox="0 0 46.705139 13.297934"
   version="1.1"
   id="svg47661"
   inkscape:version="0.92.0 r15299"
   sodipodi:docname="booths.svg">
  <defs
     id="defs47655">
    <clipPath
       id="clipPath47293"
       clipPathUnits="userSpaceOnUse">
      <path
         inkscape:connector-curvature="0"
         id="path47291"
         d="M 0,0 H 841.89 V 595.276 H 0 Z" />
    </clipPath>
    <clipPath
       id="clipPath47261"
       clipPathUnits="userSpaceOnUse">
      <path
         inkscape:connector-curvature="0"
         id="path47259"
         d="M 0,0 H 841.89 V 595.276 H 0 Z" />
    </clipPath>
    <clipPath
       id="clipPath47215"
       clipPathUnits="userSpaceOnUse">
      <path
         inkscape:connector-curvature="0"
         id="path47213"
         d="M 0,0 H 841.89 V 595.276 H 0 Z" />
    </clipPath>
    <clipPath
       id="clipPath47195"
       clipPathUnits="userSpaceOnUse">
      <path
         inkscape:connector-curvature="0"
         id="path47193"
         d="M 0,0 H 841.89 V 595.276 H 0 Z" />
    </clipPath>
    <clipPath
       id="clipPath47171"
       clipPathUnits="userSpaceOnUse">
      <path
         inkscape:connector-curvature="0"
         id="path47169"
         d="M 0,0 H 841.89 V 595.276 H 0 Z" />
    </clipPath>
  </defs>
  <sodipodi:namedview
     id="base"
     pagecolor="#ffffff"
     bordercolor="#666666"
     borderopacity="1.0"
     inkscape:pageopacity="0.0"
     inkscape:pageshadow="2"
     inkscape:zoom="5.110431"
     inkscape:cx="87.761677"
     inkscape:cy="24.62996"
     inkscape:document-units="mm"
     inkscape:current-layer="layer1"
     showgrid="false"
     fit-margin-top="0"
     fit-margin-left="0"
     fit-margin-right="0"
     fit-margin-bottom="0"
     units="px"
     inkscape:window-width="1280"
     inkscape:window-height="744"
     inkscape:window-x="-4"
     inkscape:window-y="-4"
     inkscape:window-maximized="1" />
  <metadata
     id="metadata47658">
    <rdf:RDF>
      <cc:Work
         rdf:about="">
        <dc:format>image/svg+xml</dc:format>
        <dc:type
           rdf:resource="http://purl.org/dc/dcmitype/StillImage" />
        <dc:title></dc:title>
      </cc:Work>
    </rdf:RDF>
  </metadata>
  <g
     inkscape:label="Layer 1"
     inkscape:groupmode="layer"
     id="layer1"
     transform="translate(10.747065,-142.05208)">
    <g
       id="g47915"
       transform="translate(0.13229216,-0.13228735)">
      <path
         d="m 31.807995,144.1497 v 0 c -0.406047,0.37006 -0.607836,0.85302 -0.607836,1.43228 0,0.61948 0.294922,1.13065 0.884414,1.51518 0.0039,0 0.0071,0.001 1.563511,0.74859 0.49918,0.25788 0.743655,0.55457 0.743655,0.89006 0,0.25506 -0.09313,0.46567 -0.293511,0.63959 -0.203552,0.17533 -0.438855,0.26458 -0.722136,0.26458 -0.66675,0 -1.141236,-0.35631 -1.441097,-1.09255 l -0.02963,-0.0656 -1.079148,0.66499 0.02046,0.0519 c 0.254705,0.49776 0.555272,0.87559 0.89923,1.1176 0.438503,0.3182 1.006475,0.48436 1.692981,0.48436 0.60078,0 1.132416,-0.20567 1.575858,-0.61242 0.451203,-0.41205 0.678744,-0.93134 0.678744,-1.55999 0,-0.66004 -0.29598,-1.20262 -0.88018,-1.61889 -0.04374,-0.0314 -0.178506,-0.11889 -1.570567,-0.78705 -0.494594,-0.23813 -0.746125,-0.48613 -0.746125,-0.74048 0,-0.17815 0.05574,-0.32491 0.171803,-0.4512 0.150283,-0.17392 0.365831,-0.25577 0.6731,-0.25577 0.435681,0 0.750711,0.1898 1.078794,0.6544 l 0.01729,0.0321 h 0.04586 L 35.45572,144.7022 35.42079,144.65 c -0.515055,-0.69603 -1.224844,-1.04846 -2.101144,-1.04846 -0.599722,0 -1.10737,0.18239 -1.511653,0.54822"
         style="fill:#000000;fill-opacity:1;fill-rule:nonzero;stroke:none;stroke-width:0.35277778"
         id="path47175"
         inkscape:connector-curvature="0" />
      <path
         d="m -10.652302,142.31666 h -0.09172 v 8.37106 h 3.0342414 c 0.7161389,0 1.3469055,-0.21237 1.8637249,-0.61771 0.6007806,-0.46461 0.9020528,-1.10067 0.9020528,-1.90147 0,-0.4946 -0.1665111,-0.9525 -0.4917722,-1.34691 -0.2607028,-0.32702 -0.6342944,-0.5849 -1.0205861,-0.7246 0.5753805,-0.54998 0.6935611,-1.00013 0.6935611,-1.63054 0,-0.57503 -0.1961444,-1.07033 -0.5916083,-1.46474 -0.4607278,-0.45402 -1.1221861,-0.68509 -1.9734389,-0.68509 z m 2.2471944,1.23014 c 0.4081639,0 0.7341305,0.11006 0.9775472,0.32561 0.1975555,0.18627 0.3009194,0.41099 0.3009194,0.6731 0,0.75777 -0.4751916,1.12466 -1.4488583,1.12466 h -0.8262055 v -2.12337 z m 0.3058583,3.35244 c 1.1698111,0 1.7363722,0.41769 1.7363722,1.27283 0,0.40922 -0.1425222,0.72495 -0.4120444,0.94332 -0.2853972,0.22649 -0.6695722,0.34008 -1.1440583,0.34008 h -1.482725 v -2.55623 z"
         style="fill:#000000;fill-opacity:1;fill-rule:nonzero;stroke:none;stroke-width:0.35277778"
         id="path47179"
         inkscape:connector-curvature="0" />
      <path
         d="m 20.409059,143.63886 h -5.498394 v 1.22096 h 2.111375 v 5.82789 h 1.313744 v -5.82789 h 2.126192 v -1.22096 z"
         style="fill:#000000;fill-opacity:1;fill-rule:nonzero;stroke:none;stroke-width:0.35277778"
         id="path47183"
         inkscape:connector-curvature="0" />
      <path
         d="m 28.694645,143.63886 h -1.253067 v 2.67547 h -3.456163 v -2.67547 H 22.66779 v 7.04885 h 1.317625 v -3.15207 h 3.456163 v 3.15207 h 1.310923 v -7.04885 z"
         style="fill:#000000;fill-opacity:1;fill-rule:nonzero;stroke:none;stroke-width:0.35277778"
         id="path47187"
         inkscape:connector-curvature="0" />
      <path
         d="m -3.0185088,147.16753 c 0,2.00237 1.6312444,3.6382 3.63854992,3.6382 2.01012778,0 3.63854988,-1.63583 3.63854988,-3.6382 0,-2.00872 -1.6284221,-3.64278 -3.63854988,-3.64278 -2.00730552,0 -3.63854992,1.63406 -3.63854992,3.64278 m 1.3158611,0 c 0,-1.28341 1.0406944,-2.32692 2.32268882,-2.32692 1.27987778,0 2.32339438,1.04351 2.32339438,2.32692 0,1.27882 -1.0435166,2.32022 -2.32339438,2.32022 -1.28199442,0 -2.32268882,-1.0414 -2.32268882,-2.32022"
         style="fill:#000000;fill-opacity:1;fill-rule:nonzero;stroke:none;stroke-width:0.35277778"
         id="path47199"
         inkscape:connector-curvature="0" />
      <path
         d="m 6.1376619,147.16753 c 0,2.00237 1.6312444,3.6382 3.6403138,3.6382 2.0023663,0 3.6406663,-1.63583 3.6406663,-3.6382 0,-2.00872 -1.6383,-3.64278 -3.6406663,-3.64278 -2.0090694,0 -3.6403138,1.63406 -3.6403138,3.64278 m 1.3130389,0 c 0,-1.28341 1.0431638,-2.32692 2.3272749,-2.32692 1.2809363,0 2.3230413,1.04351 2.3230413,2.32692 0,1.27882 -1.042105,2.32022 -2.3230413,2.32022 -1.2841111,0 -2.3272749,-1.0414 -2.3272749,-2.32022"
         style="fill:#000000;fill-opacity:1;fill-rule:nonzero;stroke:none;stroke-width:0.35277778"
         id="path47203"
         inkscape:connector-curvature="0" />
      <path
         d="m -9.6259376,152.79906 v 0.14041 h -0.9521474 v 0.82832 h 0.8590141 v 0.14005 h -0.8590141 v 1.06856 h -0.16898 v -2.17734 z"
         style="fill:#000000;fill-opacity:1;fill-rule:nonzero;stroke:none;stroke-width:0.35277778"
         id="path47207"
         inkscape:connector-curvature="0" />
      <path
         d="m -7.9669578,152.77113 c 0.3210278,0 0.5954889,0.10795 0.8187972,0.32561 0.2233083,0.21661 0.3358444,0.47978 0.3358444,0.79234 0,0.31009 -0.1125361,0.57362 -0.3358444,0.79093 -0.2233083,0.2159 -0.4977694,0.3242 -0.8187972,0.3242 -0.3217333,0 -0.5926667,-0.1083 -0.8166805,-0.3242 -0.2218973,-0.21731 -0.3326695,-0.48084 -0.3326695,-0.79093 0,-0.31256 0.1107722,-0.57573 0.3326695,-0.79234 0.2240138,-0.21766 0.4949472,-0.32561 0.8166805,-0.32561 m 0.00635,2.07751 c 0.269875,0 0.4991805,-0.0924 0.6847417,-0.27834 0.1876777,-0.18521 0.2804583,-0.41275 0.2804583,-0.68122 0,-0.27023 -0.092781,-0.49777 -0.2804583,-0.68333 -0.1855612,-0.18626 -0.4148667,-0.2794 -0.6847417,-0.2794 -0.2716389,0 -0.5030611,0.0931 -0.6907389,0.2794 -0.1890889,0.18556 -0.282575,0.4131 -0.282575,0.68333 0,0.26847 0.093486,0.49601 0.282575,0.68122 0.1876778,0.18591 0.4191,0.27834 0.6907389,0.27834"
         style="fill:#000000;fill-opacity:1;fill-rule:nonzero;stroke:none;stroke-width:0.35277778"
         id="path47219"
         inkscape:connector-curvature="0" />
      <path
         d="m -5.0232037,152.77113 c 0.320675,0 0.5933722,0.10795 0.8170333,0.32561 0.2236611,0.21661 0.33655,0.47978 0.33655,0.79234 0,0.31009 -0.1128889,0.57362 -0.33655,0.79093 -0.2236611,0.2159 -0.4963583,0.3242 -0.8170333,0.3242 -0.3213805,0 -0.5933722,-0.1083 -0.8166805,-0.3242 -0.2218973,-0.21731 -0.3337278,-0.48084 -0.3337278,-0.79093 0,-0.31256 0.1118305,-0.57573 0.3337278,-0.79234 0.2233083,-0.21766 0.4953,-0.32561 0.8166805,-0.32561 m 0.00529,2.07751 c 0.2705805,0 0.5002388,-0.0924 0.6868583,-0.27834 0.1862666,-0.18521 0.2797528,-0.41275 0.2797528,-0.68122 0,-0.27023 -0.093486,-0.49777 -0.2797528,-0.68333 -0.1866195,-0.18626 -0.4162778,-0.2794 -0.6868583,-0.2794 -0.2723445,0 -0.5009445,0.0931 -0.688975,0.2794 -0.1905,0.18556 -0.2846917,0.4131 -0.2846917,0.68333 0,0.26847 0.094192,0.49601 0.2846917,0.68122 0.1880305,0.18591 0.4166305,0.27834 0.688975,0.27834"
         style="fill:#000000;fill-opacity:1;fill-rule:nonzero;stroke:none;stroke-width:0.35277778"
         id="path47223"
         inkscape:connector-curvature="0" />
      <path
         d="m -3.1410638,152.7991 h 0.7627055 c 0.3859389,0 0.6798028,0.1016 0.8833556,0.30409 0.2028472,0.20285 0.3033889,0.46355 0.3033889,0.78564 0,0.31433 -0.099483,0.57432 -0.3005667,0.77999 -0.2007306,0.20497 -0.4868333,0.30762 -0.8547805,0.30762 h -0.7941028 z m 0.1707444,0.14041 v 1.89688 h 0.6134806 c 0.2811639,0 0.5157611,-0.0864 0.7027333,-0.25964 0.1880306,-0.17251 0.2797528,-0.40288 0.2797528,-0.68792 0,-0.28011 -0.09137,-0.508 -0.2758722,-0.68368 -0.1855612,-0.1771 -0.4243917,-0.26564 -0.71755,-0.26564 z"
         style="fill:#000000;fill-opacity:1;fill-rule:nonzero;stroke:none;stroke-width:0.35277778"
         id="path47227"
         inkscape:connector-curvature="0" />
      <path
         d="m -0.51858437,154.66703 v 0.24236 c 0,0.18909 -0.0680861,0.33655 -0.206375,0.44062 v -0.11148 c 0.0448028,-0.0624 0.0670278,-0.14958 0.0670278,-0.26211 h -0.0670278 v -0.30939 z"
         style="fill:#000000;fill-opacity:1;fill-rule:nonzero;stroke:none;stroke-width:0.35277778"
         id="path47231"
         inkscape:connector-curvature="0" />
      <path
         d="m 2.2594637,153.16106 -0.73025,1.83727 h -0.045861 l -0.87524164,-2.19922 h 0.17215555 l 0.72072499,1.80622 0.7313083,-1.80622 h 0.052211 l 0.7274278,1.80622 0.7231944,-1.80622 h 0.1718028 l -0.8766528,2.19922 h -0.041981 z"
         style="fill:#000000;fill-opacity:1;fill-rule:nonzero;stroke:none;stroke-width:0.35277778"
         id="path47235"
         inkscape:connector-curvature="0" />
      <path
         inkscape:connector-curvature="0"
         id="path47237"
         style="fill:#000000;fill-opacity:1;fill-rule:nonzero;stroke:none;stroke-width:0.35277778"
         d="m 4.4696797,154.97618 h 0.167599 v -2.177 h -0.167599 z" />
      <path
         d="m 7.4111657,152.79906 v 2.17734 H 7.2728768 l -1.6552333,-1.90323 v 1.90323 H 5.448663 v -2.17734 h 0.1432277 l 1.6513528,1.90324 v -1.90324 z"
         style="fill:#000000;fill-opacity:1;fill-rule:nonzero;stroke:none;stroke-width:0.35277778"
         id="path47241"
         inkscape:connector-curvature="0" />
      <path
         d="m 9.4222637,152.79906 v 0.14041 H 8.4044998 v 0.87065 h 0.9920111 v 0.14252 H 8.4044998 v 0.88371 h 1.0438695 v 0.14005 H 8.2351665 v -2.17734 z"
         style="fill:#000000;fill-opacity:1;fill-rule:nonzero;stroke:none;stroke-width:0.35277778"
         id="path47245"
         inkscape:connector-curvature="0" />
      <path
         d="m 11.987055,152.78376 1.005417,2.19251 h -0.176389 l -0.343959,-0.75212 h -1.063977 l -0.343606,0.75212 h -0.175683 l 1.006122,-2.19251 z m 0.420864,1.29893 -0.468489,-1.02553 -0.468136,1.02553 z"
         style="fill:#000000;fill-opacity:1;fill-rule:nonzero;stroke:none;stroke-width:0.35277778"
         id="path47249"
         inkscape:connector-curvature="0" />
      <path
         d="m 15.534244,152.79906 v 2.17734 h -0.138289 l -1.65488,-1.90323 v 1.90323 h -0.169334 v -2.17734 h 0.142875 l 1.652411,1.90324 v -1.90324 z"
         style="fill:#000000;fill-opacity:1;fill-rule:nonzero;stroke:none;stroke-width:0.35277778"
         id="path47253"
         inkscape:connector-curvature="0" />
      <path
         d="m 16.35647,152.7991 h 0.760589 c 0.384528,0 0.679097,0.1016 0.881592,0.30409 0.2032,0.20285 0.305858,0.46355 0.305858,0.78564 0,0.31433 -0.101953,0.57432 -0.302683,0.77999 -0.200731,0.20497 -0.484717,0.30762 -0.854781,0.30762 H 16.35647 Z m 0.167922,0.14041 v 1.89688 h 0.614539 c 0.280106,0 0.513997,-0.0864 0.702028,-0.25964 0.18803,-0.17251 0.280811,-0.40288 0.280811,-0.68792 0,-0.28011 -0.09278,-0.508 -0.276931,-0.68368 -0.185561,-0.1771 -0.425097,-0.26564 -0.716844,-0.26564 z"
         style="fill:#000000;fill-opacity:1;fill-rule:nonzero;stroke:none;stroke-width:0.35277778"
         id="path47265"
         inkscape:connector-curvature="0" />
      <path
         d="m 21.619843,152.95711 v 0.18979 c -0.258233,-0.14675 -0.515408,-0.22048 -0.770114,-0.22048 -0.277283,0 -0.504472,0.0914 -0.688622,0.27516 -0.183092,0.18204 -0.274461,0.4117 -0.274461,0.68722 0,0.27516 0.09031,0.50376 0.272697,0.68721 0.179917,0.18168 0.42545,0.27269 0.735189,0.27269 0.224719,0 0.424039,-0.0448 0.5969,-0.1337 v -0.58773 h -0.458964 v -0.1404 h 0.631825 v 0.83361 c -0.258586,0.12312 -0.517525,0.1838 -0.775053,0.1838 -0.337961,0 -0.620889,-0.1076 -0.845255,-0.32032 -0.227895,-0.21449 -0.339725,-0.48154 -0.339725,-0.80151 0,-0.3175 0.110419,-0.58244 0.332669,-0.79481 0.222956,-0.21132 0.500239,-0.31644 0.836436,-0.31644 0.2286,0 0.478014,0.0624 0.746478,0.18591"
         style="fill:#000000;fill-opacity:1;fill-rule:nonzero;stroke:none;stroke-width:0.35277778"
         id="path47269"
         inkscape:connector-curvature="0" />
      <path
         d="m 22.409043,152.7991 h 0.559153 c 0.233186,0 0.41275,0.0511 0.535869,0.1524 0.12312,0.10125 0.185561,0.23848 0.185561,0.40993 0,0.25188 -0.138994,0.42827 -0.414161,0.53022 0.07091,0.0346 0.168275,0.14535 0.289984,0.33232 l 0.490713,0.75247 h -0.197555 l -0.379589,-0.5969 c -0.127706,-0.19932 -0.225778,-0.3242 -0.297039,-0.37359 -0.06914,-0.049 -0.173567,-0.0734 -0.309386,-0.0734 h -0.294569 v 1.04387 h -0.168981 z m 0.168981,0.14041 v 0.85195 h 0.363008 c 0.183092,0 0.322792,-0.0363 0.420158,-0.11077 0.09807,-0.0744 0.14605,-0.17992 0.14605,-0.31609 0,-0.1337 -0.0508,-0.23812 -0.149578,-0.31256 -0.09772,-0.0751 -0.23883,-0.11253 -0.424038,-0.11253 z"
         style="fill:#000000;fill-opacity:1;fill-rule:nonzero;stroke:none;stroke-width:0.35277778"
         id="path47273"
         inkscape:connector-curvature="0" />
      <path
         d="m 25.567533,152.77113 c 0.319617,0 0.593725,0.10795 0.815975,0.32561 0.225072,0.21661 0.338314,0.47978 0.338314,0.79234 0,0.31009 -0.113242,0.57362 -0.338314,0.79093 -0.22225,0.2159 -0.496358,0.3242 -0.815975,0.3242 -0.322086,0 -0.593725,-0.1083 -0.817033,-0.3242 -0.221898,-0.21731 -0.333023,-0.48084 -0.333023,-0.79093 0,-0.31256 0.111125,-0.57573 0.333023,-0.79234 0.223308,-0.21766 0.494947,-0.32561 0.817033,-0.32561 m 0.0049,2.07751 c 0.271286,0 0.499533,-0.0924 0.686858,-0.27834 0.186972,-0.18521 0.278342,-0.41275 0.278342,-0.68122 0,-0.27023 -0.09137,-0.49777 -0.278342,-0.68333 -0.187325,-0.18626 -0.415572,-0.2794 -0.686858,-0.2794 -0.270581,0 -0.50165,0.0931 -0.690386,0.2794 -0.188384,0.18556 -0.28187,0.4131 -0.28187,0.68333 0,0.26847 0.09349,0.49601 0.28187,0.68122 0.188736,0.18591 0.419805,0.27834 0.690386,0.27834"
         style="fill:#000000;fill-opacity:1;fill-rule:nonzero;stroke:none;stroke-width:0.35277778"
         id="path47277"
         inkscape:connector-curvature="0" />
      <path
         d="m 29.264538,152.95327 v 0.18309 c -0.264936,-0.1397 -0.523875,-0.2099 -0.775758,-0.2099 -0.270934,0 -0.497064,0.0924 -0.678745,0.27658 -0.18168,0.18415 -0.272344,0.41275 -0.272344,0.68862 0,0.27799 0.09066,0.50765 0.273403,0.68721 0.182738,0.18027 0.415572,0.26987 0.699205,0.26987 0.23742,0 0.496711,-0.0748 0.775758,-0.2226 v 0.17427 c -0.257175,0.13618 -0.515055,0.20391 -0.772583,0.20391 -0.3302,0 -0.607483,-0.10583 -0.826911,-0.31821 -0.221544,-0.21307 -0.334433,-0.47695 -0.334433,-0.79445 0,-0.31891 0.116769,-0.58526 0.339725,-0.7994 0.226836,-0.21378 0.495652,-0.32102 0.805744,-0.32102 0.246239,0 0.500945,0.0607 0.766939,0.18203"
         style="fill:#000000;fill-opacity:1;fill-rule:nonzero;stroke:none;stroke-width:0.35277778"
         id="path47281"
         inkscape:connector-curvature="0" />
      <path
         d="m 31.120848,152.79906 v 0.14041 h -1.018469 v 0.87065 h 0.993775 v 0.14252 h -0.993775 v 0.88371 h 1.043163 v 0.14005 h -1.211086 v -2.17734 z"
         style="fill:#000000;fill-opacity:1;fill-rule:nonzero;stroke:none;stroke-width:0.35277778"
         id="path47285"
         inkscape:connector-curvature="0" />
      <path
         d="m 31.810641,152.7991 h 0.559858 c 0.233186,0 0.411692,0.0511 0.535164,0.1524 0.12312,0.10125 0.185209,0.23848 0.185209,0.40993 0,0.25188 -0.138642,0.42827 -0.414514,0.53022 0.07232,0.0346 0.168275,0.14535 0.290336,0.33232 l 0.492125,0.75247 h -0.199672 l -0.379942,-0.5969 c -0.125589,-0.19932 -0.223661,-0.3242 -0.296686,-0.37359 -0.06914,-0.049 -0.17145,-0.0734 -0.309386,-0.0734 h -0.293511 v 1.04387 h -0.168981 z m 0.168981,0.14041 v 0.85195 h 0.361597 c 0.184503,0 0.324203,-0.0363 0.421216,-0.11077 0.09772,-0.0744 0.146403,-0.17992 0.146403,-0.31609 0,-0.1337 -0.04868,-0.23812 -0.148166,-0.31256 -0.09984,-0.0751 -0.239889,-0.11253 -0.42545,-0.11253 z"
         style="fill:#000000;fill-opacity:1;fill-rule:nonzero;stroke:none;stroke-width:0.35277778"
         id="path47297"
         inkscape:connector-curvature="0" />
      <path
         d="m 35.438345,152.79906 -0.846314,1.00859 v 1.16875 h -0.16898 v -1.16875 l -0.846314,-1.00859 h 0.202494 l 0.728486,0.86254 0.724959,-0.86254 z"
         style="fill:#000000;fill-opacity:1;fill-rule:nonzero;stroke:none;stroke-width:0.35277778"
         id="path47301"
         inkscape:connector-curvature="0" />
    </g>
  </g>
</svg>
